<svg xmlns="http://www.w3.org/2000/svg" width="100%" viewBox="207.901279651745 139.62244218032419 134.19744069651003 134.19744069651">
    <g fill-rule="evenodd">
        <path
            d="M207.90128,206.72116c0,-36.99795 30.10077,-67.09872 67.09872,-67.09872c36.99795,0 67.09872,30.10077 67.09872,67.09872c0,36.99795 -30.10077,67.09872 -67.09872,67.09872c-36.99795,0 -67.09872,-30.10077 -67.09872,-67.09872zM308.56753,155.2215c-9.65942,-6.31847 -21.18782,-10.00749 -33.56753,-10.00749c-32.95386,0 -59.93174,26.05247 -61.43447,58.64148c30.62917,-0.72271 59.32226,-12.95564 81.06225,-34.69423zM308.60668,183.13876l14.57859,-14.5772c-2.94675,-3.7142 -6.31147,-7.07891 -10.02567,-10.02567l-14.57859,14.5772c-22.79819,22.79819 -52.89756,35.61125 -85.01967,36.33396c0.12721,2.87546 0.45991,5.6964 0.96874,8.45724h10.14729c31.70415,0 61.50995,-12.34616 83.92931,-34.76552zM238.65626,231.88318c31.70415,0 61.50995,-12.34616 83.92931,-34.76552l10.52192,-10.52192c-1.6579,-4.77519 -3.88614,-9.28199 -6.60783,-13.44351l-13.93976,13.93976c-23.47477,23.47477 -54.68546,36.40385 -87.88255,36.40385h-8.84026c0.82056,2.88804 1.84521,5.68801 3.05998,8.38734zM336.31565,211.3342c0.11462,-1.5251 0.19151,-3.05998 0.19151,-4.61304c0,-4.81433 -0.57314,-9.49447 -1.62435,-13.99288l-8.34401,8.34261c-23.47477,23.47477 -54.68546,36.40385 -87.88255,36.40385h-16.8893c1.71521,2.95654 3.65548,5.76769 5.82221,8.38734h25.04599c31.58952,0 61.28909,-12.26369 83.68049,-34.52788zM232.85082,251.45364c11.01817,10.38772 25.84698,16.77468 42.14918,16.77468c29.27741,0 53.82575,-20.56856 59.99744,-48.01053c-22.74367,20.18413 -51.69817,31.23585 -82.36228,31.23585z">
        </path>
    </g>
</svg>